{
    "asset" : {
        "generator" : "Khronos glTF Blender I/O v1.6.16",
        "version" : "2.0"
    },
    "scene" : 0,
    "scenes" : [
        {
            "name" : "Scene",
            "nodes" : [
                0,
                1
            ]
        }
    ],
    "nodes" : [
        {
            "mesh" : 0,
            "name" : "ball"
        },
        {
            "mesh" : 1,
            "name" : "ball_lights"
        }
    ],
    "materials" : [
        {
            "doubleSided" : true,
            "name" : "Material",
            "pbrMetallicRoughness" : {
                "baseColorTexture" : {
                    "index" : 0
                },
                "metallicFactor" : 0,
                "roughnessFactor" : 0.4000000059604645
            }
        }
    ],
    "meshes" : [
        {
            "name" : "Sphere",
            "primitives" : [
                {
                    "attributes" : {
                        "POSITION" : 0,
                        "NORMAL" : 1,
                        "TEXCOORD_0" : 2
                    },
                    "indices" : 3,
                    "material" : 0
                }
            ]
        },
        {
            "name" : "Sphere.001",
            "primitives" : [
                {
                    "attributes" : {
                        "POSITION" : 4,
                        "NORMAL" : 5,
                        "TEXCOORD_0" : 6
                    },
                    "indices" : 7,
                    "material" : 0
                }
            ]
        }
    ],
    "textures" : [
        {
            "sampler" : 0,
            "source" : 0
        }
    ],
    "images" : [
        {
            "bufferView" : 4,
            "mimeType" : "image/png",
            "name" : "uber_albedo"
        }
    ],
    "accessors" : [
        {
            "bufferView" : 0,
            "componentType" : 5126,
            "count" : 1656,
            "max" : [
                2.9999969005584717,
                3,
                2.999998092651367
            ],
            "min" : [
                -2.9999969005584717,
                -3,
                -2.999998092651367
            ],
            "type" : "VEC3"
        },
        {
            "bufferView" : 1,
            "componentType" : 5126,
            "count" : 1656,
            "type" : "VEC3"
        },
        {
            "bufferView" : 2,
            "componentType" : 5126,
            "count" : 1656,
            "type" : "VEC2"
        },
        {
            "bufferView" : 3,
            "componentType" : 5123,
            "count" : 6720,
            "type" : "SCALAR"
        },
        {
            "bufferView" : 5,
            "componentType" : 5126,
            "count" : 300,
            "max" : [
                3.1120376586914062,
                3.1126747131347656,
                3.1120388507843018
            ],
            "min" : [
                -3.1120376586914062,
                -3.1126747131347656,
                -3.1120388507843018
            ],
            "type" : "VEC3"
        },
        {
            "bufferView" : 6,
            "componentType" : 5126,
            "count" : 300,
            "type" : "VEC3"
        },
        {
            "bufferView" : 7,
            "componentType" : 5126,
            "count" : 300,
            "type" : "VEC2"
        },
        {
            "bufferView" : 8,
            "componentType" : 5123,
            "count" : 1152,
            "type" : "SCALAR"
        }
    ],
    "bufferViews" : [
        {
            "buffer" : 0,
            "byteLength" : 19872,
            "byteOffset" : 0
        },
        {
            "buffer" : 0,
            "byteLength" : 19872,
            "byteOffset" : 19872
        },
        {
            "buffer" : 0,
            "byteLength" : 13248,
            "byteOffset" : 39744
        },
        {
            "buffer" : 0,
            "byteLength" : 13440,
            "byteOffset" : 52992
        },
        {
            "buffer" : 0,
            "byteLength" : 2803,
            "byteOffset" : 66432
        },
        {
            "buffer" : 0,
            "byteLength" : 3600,
            "byteOffset" : 69236
        },
        {
            "buffer" : 0,
            "byteLength" : 3600,
            "byteOffset" : 72836
        },
        {
            "buffer" : 0,
            "byteLength" : 2400,
            "byteOffset" : 76436
        },
        {
            "buffer" : 0,
            "byteLength" : 2304,
            "byteOffset" : 78836
        }
    ],
    "samplers" : [
        {
            "magFilter" : 9729,
            "minFilter" : 9987
        }
    ],
    "buffers" : [
        {
            "byteLength" : 81140,
            "uri" : "data:application/octet-stream;base64,"
        }
    ]
}
