{
    "asset" : {
        "generator" : "Khronos glTF Blender I/O v1.6.16",
        "version" : "2.0"
    },
    "scene" : 0,
    "scenes" : [
        {
            "name" : "Scene",
            "nodes" : [
                0
            ]
        }
    ],
    "nodes" : [
        {
            "mesh" : 0,
            "name" : "losers_field"
        }
    ],
    "meshes" : [
        {
            "name" : "Cube.001",
            "primitives" : [
                {
                    "attributes" : {
                        "POSITION" : 0,
                        "NORMAL" : 1,
                        "TEXCOORD_0" : 2
                    },
                    "indices" : 3
                }
            ]
        }
    ],
    "accessors" : [
        {
            "bufferView" : 0,
            "componentType" : 5126,
            "count" : 3417,
            "max" : [
                120,
                60,
                80
            ],
            "min" : [
                -120,
                0,
                -80
            ],
            "type" : "VEC3"
        },
        {
            "bufferView" : 1,
            "componentType" : 5126,
            "count" : 3417,
            "type" : "VEC3"
        },
        {
            "bufferView" : 2,
            "componentType" : 5126,
            "count" : 3417,
            "type" : "VEC2"
        },
        {
            "bufferView" : 3,
            "componentType" : 5123,
            "count" : 5400,
            "type" : "SCALAR"
        }
    ],
    "bufferViews" : [
        {
            "buffer" : 0,
            "byteLength" : 41004,
            "byteOffset" : 0
        },
        {
            "buffer" : 0,
            "byteLength" : 41004,
            "byteOffset" : 41004
        },
        {
            "buffer" : 0,
            "byteLength" : 27336,
            "byteOffset" : 82008
        },
        {
            "buffer" : 0,
            "byteLength" : 10800,
            "byteOffset" : 109344
        }
    ],
    "buffers" : [
        {
            "byteLength" : 120144,
            "uri" : "data:application/octet-stream;base64,"
        }
    ]
}
