{
    "asset" : {
        "generator" : "Khronos glTF Blender I/O v1.6.16",
        "version" : "2.0"
    },
    "scene" : 0,
    "scenes" : [
        {
            "name" : "Scene",
            "nodes" : [
                0
            ]
        }
    ],
    "nodes" : [
        {
            "mesh" : 0,
            "name" : "losers_field"
        }
    ],
    "meshes" : [
        {
            "name" : "Cube.001",
            "primitives" : [
                {
                    "attributes" : {
                        "POSITION" : 0,
                        "NORMAL" : 1,
                        "TEXCOORD_0" : 2
                    },
                    "indices" : 3
                }
            ]
        }
    ],
    "accessors" : [
        {
            "bufferView" : 0,
            "componentType" : 5126,
            "count" : 1712,
            "max" : [
                120,
                56,
                80
            ],
            "min" : [
                -120,
                -7.450580596923828e-09,
                -80
            ],
            "type" : "VEC3"
        },
        {
            "bufferView" : 1,
            "componentType" : 5126,
            "count" : 1712,
            "type" : "VEC3"
        },
        {
            "bufferView" : 2,
            "componentType" : 5126,
            "count" : 1712,
            "type" : "VEC2"
        },
        {
            "bufferView" : 3,
            "componentType" : 5123,
            "count" : 2700,
            "type" : "SCALAR"
        }
    ],
    "bufferViews" : [
        {
            "buffer" : 0,
            "byteLength" : 20544,
            "byteOffset" : 0
        },
        {
            "buffer" : 0,
            "byteLength" : 20544,
            "byteOffset" : 20544
        },
        {
            "buffer" : 0,
            "byteLength" : 13696,
            "byteOffset" : 41088
        },
        {
            "buffer" : 0,
            "byteLength" : 5400,
            "byteOffset" : 54784
        }
    ],
    "buffers" : [
        {
            "byteLength" : 60184,
            "uri" : "data:application/octet-stream;base64,"
        }
    ]
}
